<svg version="1" xmlns="http://www.w3.org/2000/svg" width="682.667" height="682.667" viewBox="0 0 512.000000 512.000000"><path d="M64 33v8h8.5c4.7 0 8.5.2 8.5.4s-2 3.8-4.5 8L72 57h39.9l-20 32-20 32H33.5l-4.8 8.1-4.7 8.1v41.5c0 46.2 0 45.9 6.8 51.1 3.3 2.5 4.4 2.7 14.4 3l10.8.4v3.8c0 2.1.9 6.6 2 10.1 4.9 15.9 18 28.4 34.1 32.5 8.3 2.1 21.2 1.5 29.1-1.5 16.2-6.2 28.7-22.2 30.5-39.2l.6-5.9H360v3.9c0 2.1.9 6.7 2 10.2 4.9 15.9 18 28.4 34.1 32.5 8.4 2.1 21.2 1.5 29.1-1.6 16.2-6.1 28.7-22.2 30.5-39l.6-5.8 10.7-.4c9.8-.3 11-.5 14.2-3 6.8-5.2 6.9-5.8 6.6-43.6l-.3-33.7-2.8-5.6c-3.3-6.8-10-13.2-17-16.4-2.9-1.3-13.3-4.5-23.2-7-9.9-2.6-29.5-7.8-43.5-11.6l-25.5-7L338 67.6c-34.6-34.4-38-37.5-43.5-39.7l-6-2.4-112.2-.3L64 25v8zm214.1 25.5c3.4 1.2 7.8 5 19.2 16.3L312 89.5V121H184V57h44.9c37.7 0 45.5.2 49.2 1.5zM224 153v8h-32v-16h32v8zm-115.8 65c11.3 3.2 15 17.6 6.7 25.9-11 11.1-30 .2-25.9-14.8 1.3-4.8 5.9-9.7 10.3-11 4.3-1.2 4.6-1.2 8.9-.1zm304 0c11.3 3.2 15 17.6 6.7 25.9-11 11.1-30 .2-25.9-14.8 1.3-4.8 5.9-9.7 10.3-11 4.3-1.2 4.6-1.2 8.9-.1zM86.3 330.7c1.1 20.5 6.2 40.6 15.1 59.7 19.8 42.3 56.7 74.8 101.9 89.5 19.6 6.4 27.8 7.6 52.7 7.6 23.8 0 32.1-1.1 49.5-6.5 68.2-21 116.4-81.2 120.2-150.3l.6-10.7H397v5.7c0 15-6.4 40.3-14.1 55.4-15.1 30.3-41.5 54.7-72.4 67.5-69 28.3-148.1-1.1-181.4-67.5-7.7-15.1-14.1-40.4-14.1-55.4V320H85.7l.6 10.7z"/></svg>